%
M48
M72
T01C0.01200
T02C0.02000
T03C0.03200
T04C0.04000
T05C0.05500
T06C0.12598
T07C0.13000
%
T01
X124531Y16264
X220004Y188508
X197366Y224925
X188508Y270201
T02
X135500Y192700
X123547Y131421
T03
X134500Y138100
X135100Y157100
X95100Y157100
X94500Y138100
X81700Y117900
X71700Y117900
X34500Y117700
X24500Y117700
X157300Y228900
X187300Y228900
X201900Y229100
X231900Y229100
X244500Y128900
X254500Y128900
X254500Y98900
X244500Y98900
T04
X187300Y148700
X177300Y148700
X167300Y148700
X165500Y201500
X155500Y201500
X145500Y201500
X135500Y201500
X125500Y201500
X115500Y201500
X105500Y201500
X95500Y201500
X95100Y260100
X105100Y260100
X115100Y260100
X131700Y259900
X141700Y259900
X151700Y259900
X172900Y259900
X182900Y259900
X192900Y259900
X202900Y259900
X212900Y259900
X222900Y259900
X232900Y259900
X261100Y240700
X261100Y230700
X251500Y201500
X241500Y201500
X231500Y201500
X221500Y201500
X211500Y201500
X201500Y201500
X191500Y201500
X181500Y201500
X79500Y259900
X69500Y259900
X59500Y259900
X59500Y86900
X49500Y86900
X39500Y86900
X131500Y11500
X141500Y11500
X151500Y11500
X161500Y11500
X171500Y11500
X181500Y11500
X201500Y11500
X211500Y11500
X221500Y11500
X231500Y11500
X241500Y11500
X251500Y11500
T05
X22100Y235900
X37500Y258900
T06
X14700Y16100
X15300Y263300
X258100Y264100
X265500Y11900
T07
X49500Y27900
M30
