G75*
%MOIN*%
%OFA0B0*%
%FSLAX25Y25*%
%IPPOS*%
%LPD*%
%AMOC8*
5,1,8,0,0,1.08239X$1,22.5*
%
%ADD10C,0.06000*%
%ADD11OC8,0.15000*%
%ADD12OC8,0.06300*%
%ADD13C,0.05200*%
%ADD14OC8,0.05200*%
%ADD15OC8,0.04000*%
%ADD16C,0.01000*%
%ADD17OC8,0.03200*%
D10*
X0039500Y0083900D02*
X0039500Y0089900D01*
X0049500Y0089900D02*
X0049500Y0083900D01*
X0059500Y0083900D02*
X0059500Y0089900D01*
X0131500Y0014500D02*
X0131500Y0008500D01*
X0141500Y0008500D02*
X0141500Y0014500D01*
X0151500Y0014500D02*
X0151500Y0008500D01*
X0161500Y0008500D02*
X0161500Y0014500D01*
X0171500Y0014500D02*
X0171500Y0008500D01*
X0181500Y0008500D02*
X0181500Y0014500D01*
X0201500Y0014500D02*
X0201500Y0008500D01*
X0211500Y0008500D02*
X0211500Y0014500D01*
X0221500Y0014500D02*
X0221500Y0008500D01*
X0231500Y0008500D02*
X0231500Y0014500D01*
X0241500Y0014500D02*
X0241500Y0008500D01*
X0251500Y0008500D02*
X0251500Y0014500D01*
X0187300Y0145700D02*
X0187300Y0151700D01*
X0177300Y0151700D02*
X0177300Y0145700D01*
X0167300Y0145700D02*
X0167300Y0151700D01*
X0165500Y0198500D02*
X0165500Y0204500D01*
X0155500Y0204500D02*
X0155500Y0198500D01*
X0145500Y0198500D02*
X0145500Y0204500D01*
X0135500Y0204500D02*
X0135500Y0198500D01*
X0125500Y0198500D02*
X0125500Y0204500D01*
X0115500Y0204500D02*
X0115500Y0198500D01*
X0105500Y0198500D02*
X0105500Y0204500D01*
X0095500Y0204500D02*
X0095500Y0198500D01*
X0095100Y0257100D02*
X0095100Y0263100D01*
X0105100Y0263100D02*
X0105100Y0257100D01*
X0115100Y0257100D02*
X0115100Y0263100D01*
X0131700Y0262900D02*
X0131700Y0256900D01*
X0141700Y0256900D02*
X0141700Y0262900D01*
X0151700Y0262900D02*
X0151700Y0256900D01*
X0172900Y0256900D02*
X0172900Y0262900D01*
X0182900Y0262900D02*
X0182900Y0256900D01*
X0192900Y0256900D02*
X0192900Y0262900D01*
X0202900Y0262900D02*
X0202900Y0256900D01*
X0212900Y0256900D02*
X0212900Y0262900D01*
X0222900Y0262900D02*
X0222900Y0256900D01*
X0232900Y0256900D02*
X0232900Y0262900D01*
X0258100Y0240700D02*
X0264100Y0240700D01*
X0264100Y0230700D02*
X0258100Y0230700D01*
X0251500Y0204500D02*
X0251500Y0198500D01*
X0241500Y0198500D02*
X0241500Y0204500D01*
X0231500Y0204500D02*
X0231500Y0198500D01*
X0221500Y0198500D02*
X0221500Y0204500D01*
X0211500Y0204500D02*
X0211500Y0198500D01*
X0201500Y0198500D02*
X0201500Y0204500D01*
X0191500Y0204500D02*
X0191500Y0198500D01*
X0181500Y0198500D02*
X0181500Y0204500D01*
X0079500Y0256900D02*
X0079500Y0262900D01*
X0069500Y0262900D02*
X0069500Y0256900D01*
X0059500Y0256900D02*
X0059500Y0262900D01*
D11*
X0037500Y0258900D03*
X0022100Y0235900D03*
D12*
X0024500Y0117700D03*
X0034500Y0117700D03*
X0071700Y0117900D03*
X0081700Y0117900D03*
D13*
X0091900Y0138100D02*
X0097100Y0138100D01*
X0097700Y0157100D02*
X0092500Y0157100D01*
X0132500Y0157100D02*
X0137700Y0157100D01*
X0137100Y0138100D02*
X0131900Y0138100D01*
X0244500Y0134100D02*
X0244500Y0128900D01*
X0254500Y0128900D02*
X0254500Y0134100D01*
X0254500Y0098900D02*
X0254500Y0093700D01*
X0244500Y0093700D02*
X0244500Y0098900D01*
D14*
X0231900Y0229100D03*
X0201900Y0229100D03*
X0187300Y0228900D03*
X0157300Y0228900D03*
D15*
X0135500Y0192700D03*
X0123547Y0131421D03*
D16*
X0073350Y0115673D02*
X0071382Y0117642D01*
X0071700Y0117900D01*
X0073350Y0115673D02*
X0073350Y0114689D01*
X0050713Y0092051D01*
X0049728Y0092051D01*
X0049728Y0087130D01*
X0049500Y0086900D01*
X0124531Y0016264D02*
X0129453Y0021185D01*
X0178665Y0021185D01*
X0180634Y0019217D01*
X0180634Y0012327D01*
X0181500Y0011500D01*
X0220004Y0188508D02*
X0212130Y0196382D01*
X0212130Y0201303D01*
X0211500Y0201500D01*
X0214300Y0210700D02*
X0221500Y0203500D01*
X0221500Y0201500D01*
X0214300Y0210700D02*
X0188700Y0210700D01*
X0141900Y0257500D01*
X0141900Y0259900D01*
X0141700Y0259900D01*
X0132406Y0260358D02*
X0131700Y0259900D01*
X0132406Y0260358D02*
X0132406Y0265280D01*
X0136343Y0269217D01*
X0154059Y0269217D01*
X0161933Y0261343D01*
X0171776Y0261343D01*
X0172760Y0260358D01*
X0172900Y0259900D01*
X0182900Y0259900D02*
X0183587Y0260358D01*
X0183587Y0265280D01*
X0188508Y0270201D01*
X0209177Y0251500D02*
X0210161Y0251500D01*
X0231815Y0229846D01*
X0231900Y0229100D01*
X0209177Y0251500D02*
X0187524Y0229846D01*
X0187300Y0228900D01*
X0197366Y0224925D02*
X0201303Y0228862D01*
X0201900Y0229100D01*
X0182700Y0212300D02*
X0191500Y0203500D01*
X0191500Y0201500D01*
X0194300Y0192300D02*
X0201500Y0199500D01*
X0201500Y0201500D01*
X0194300Y0192300D02*
X0179100Y0192300D01*
X0175500Y0195900D01*
X0175500Y0203100D01*
X0167900Y0210700D01*
X0151900Y0210700D01*
X0105100Y0257500D01*
X0105100Y0260100D01*
X0117500Y0269500D02*
X0124300Y0262700D01*
X0124300Y0243100D01*
X0155100Y0212300D01*
X0182700Y0212300D01*
X0209177Y0251500D02*
X0212130Y0254453D01*
X0212130Y0259374D01*
X0212900Y0259900D01*
X0117500Y0269500D02*
X0075900Y0269500D01*
X0069500Y0263100D01*
X0069500Y0259900D01*
D17*
X0188508Y0270201D03*
X0197366Y0224925D03*
X0220004Y0188508D03*
X0124531Y0016264D03*
M02*
